<svg xmlns="http://www.w3.org/2000/svg" viewBox="0 0 1061.66 128.94"><defs><style>.cls-1{fill:#c8102e;}</style></defs><g id="Calque_2" data-name="Calque 2"><g id="Layer_2" data-name="Layer 2"><path class="cls-1" d="M82.34,53.7H55.49a10.74,10.74,0,1,0,0,21.47H82.34a10.74,10.74,0,0,0,0-21.47ZM100.23,0H10.74A10.77,10.77,0,0,0,0,10.74V118.13a10.74,10.74,0,1,0,21.48,0V21.48h78.75a10.74,10.74,0,0,0,0-21.48ZM225.55,64.4A15.25,15.25,0,0,0,210,49,15.07,15.07,0,0,0,194.59,64.4,15.24,15.24,0,0,0,210,80,15.42,15.42,0,0,0,225.55,64.4Zm37.93,12.1a10.78,10.78,0,0,0-14.14,5.37,42.82,42.82,0,0,1-78.4,0,10.78,10.78,0,1,0-19.69,8.77,64.26,64.26,0,0,0,23.45,27.74,62.93,62.93,0,0,0,35.44,10.56A61.88,61.88,0,0,0,245,118.56a64.77,64.77,0,0,0,23.63-27.38A10.81,10.81,0,0,0,263.48,76.5ZM245,10.27a65.25,65.25,0,0,0-70.34.18,64.26,64.26,0,0,0-23.45,27.74A10.78,10.78,0,1,0,170.94,47a42.94,42.94,0,0,1,78.4,0,10.67,10.67,0,0,0,14.14,5.37c5.54-2.68,7.87-8.59,5.19-14.85A64.27,64.27,0,0,0,245,10.27ZM342.6.07a10.77,10.77,0,0,0-10.74,10.74V118.2a10.74,10.74,0,1,0,21.48,0V10.81A10.77,10.77,0,0,0,342.6.07Zm68,81.62a42.25,42.25,0,0,0,20-15.22,41,41,0,0,0,7.7-24.34A40.42,40.42,0,0,0,426,12.42,40.14,40.14,0,0,0,396.3.07h-8.95a10.74,10.74,0,0,0,0,21.48h9.84A19,19,0,0,1,411,28a19.19,19.19,0,0,1,5.91,14.14A19.89,19.89,0,0,1,411,56.45a19.53,19.53,0,0,1-14,6.27h-9.66a10.88,10.88,0,0,0-7.7,18.43L424.4,125.9a10.88,10.88,0,0,0,18.43-7.7,10.31,10.31,0,0,0-3.22-7.52ZM552,44.82a10.77,10.77,0,0,0-10.74,10.74V118.2a10.74,10.74,0,0,0,21.48,0V55.56A10.77,10.77,0,0,0,552,44.82ZM605.7.07H498.3a10.74,10.74,0,0,0,0,21.48H605.7a10.74,10.74,0,1,0,0-21.48Zm84.69,0a10.77,10.77,0,0,0-10.74,10.74V118.2a10.74,10.74,0,0,0,21.48,0V10.81A10.77,10.77,0,0,0,690.39.07ZM853.17,94.93a46.5,46.5,0,0,1-12.89,8.77,10.78,10.78,0,1,0,8.77,19.69,66.21,66.21,0,0,0,19.33-13.24,10.76,10.76,0,0,0-15.21-15.22Zm-47.79,8.77a42.93,42.93,0,0,1,0-78.39,10.68,10.68,0,0,0,5.37-14.14c-2.69-5.55-8.6-7.88-14.86-5.19A64.24,64.24,0,0,0,768.68,29.6a63.18,63.18,0,0,0-10.2,34.91A62.82,62.82,0,0,0,768.86,100a64.21,64.21,0,0,0,27.75,23.44,10.78,10.78,0,1,0,8.77-19.69ZM849.05,5.62a10.78,10.78,0,0,0-8.77,19.69,41.87,41.87,0,0,1,12.89,9,10.88,10.88,0,0,0,18.43-7.7c0-3-1.43-5.91-4.47-8.59A77.37,77.37,0,0,0,849.05,5.62Zm114.17,39a10,10,0,0,0-9.32,5.17L917.58,113a10.21,10.21,0,0,0-1.26,5.19,10.77,10.77,0,0,0,10.73,10.74c4.13,0,7.54-2.14,10.05-6.61l11.65-20.24,12.36-21.47L971.82,62c1.42-2.69,2.14-4.82,2.14-6.61A10.75,10.75,0,0,0,963.22,44.64ZM1060.41,113,998.29,5.24A9.88,9.88,0,0,0,989.17.07a10.76,10.76,0,0,0-10.74,10.74,14.67,14.67,0,0,0,2,6.61l60.5,104.9c2.51,4.47,5.92,6.61,10,6.61a10.76,10.76,0,0,0,10.74-10.74A10.1,10.1,0,0,0,1060.41,113ZM988.88,91.71a15.08,15.08,0,0,0-15.38,15.38,15.25,15.25,0,0,0,15.38,15.59,15.43,15.43,0,0,0,15.59-15.59A15.25,15.25,0,0,0,988.88,91.71Z"/></g></g></svg>